<svg width="260" height="240" viewBox="4 30 192 176" class="mx-auto h-64 w-64 sm:h-72 sm:w-72 md:h-80 md:w-80" role="img"><defs><clipPath id="cone-clip-inner-_R_0_"><path d="M 65.5 112 L 101.5 166.425 Q 100 168.95 98.5 166.425 L 134.5 112 Z"></path></clipPath><clipPath id="cone-clip-mouth-_R_0_"><path d="M 65.5 112 L 101.5 166.425 Q 100 168.95 98.5 166.425 L 134.5 112 Z"></path><path d="M 56.68000000000001 112 L 143.32 112 L 143.32 42 A 43.31999999999999 10 0 0 0 56.68000000000001 42 Z"></path></clipPath></defs><ellipse cx="100" cy="176" rx="8" ry="3" fill="#F06B8A" transform="translate(100, 176) scale(2.708000000000001, 2.626666666666668) translate(-100, -176)" style="opacity:0.3"></ellipse><g><path d="M 64 114 L 96 162 Q 100 170 104 162 L 136 114 Q 100 108 64 114 Z" fill="#E8B86D" stroke="#A9702F" stroke-width="2" stroke-linejoin="round" stroke-linecap="round"></path></g><g clip-path="url(#cone-clip-inner-_R_0_)"></g><g clip-path="url(#cone-clip-mouth-_R_0_)"><g><path d="M 59.26571959638908 114 Q 100 117.2 140.7342804036109 114 Q 100 114.896 59.26571959638908 114 Z" fill="rgb(132, 59, 76)" opacity="0.3"></path><g opacity="0.314375" transform="translate(100, 117) rotate(2.1068056403659283) scale(0.825, 0.525) translate(-100, -117) translate(0, 2.4624000000000024)"><path d="M 58.959999999999994 117 A 41.040000000000006 41.040000000000006 0 0 1 141.04000000000002 117 Q 118.468 121.9248 100 122.17104 Q 81.532 121.9248 58.959999999999994 117 Z" fill="#F06B8A" stroke="none"></path><path d="M 58.959999999999994 117 A 41.040000000000006 41.040000000000006 0 0 1 141.04000000000002 117" fill="none" stroke="#B03A58" stroke-width="2" stroke-linejoin="round" stroke-linecap="round"></path></g></g></g><g><defs><clipPath id="cone-waffle-_R_0_"><path d="M 64 114 L 96 162 Q 100 170 104 162 L 136 114 Q 100 108 64 114 Z"></path></clipPath></defs><g clip-path="url(#cone-waffle-_R_0_)" stroke="#C4956A" stroke-width="1.2" opacity="0.65"><line x1="2" y1="108" x2="64" y2="170"></line><line x1="11" y1="108" x2="73" y2="170"></line><line x1="20" y1="108" x2="82" y2="170"></line><line x1="29" y1="108" x2="91" y2="170"></line><line x1="38" y1="108" x2="100" y2="170"></line><line x1="47" y1="108" x2="109" y2="170"></line><line x1="56" y1="108" x2="118" y2="170"></line><line x1="65" y1="108" x2="127" y2="170"></line><line x1="74" y1="108" x2="136" y2="170"></line><line x1="83" y1="108" x2="145" y2="170"></line><line x1="92" y1="108" x2="154" y2="170"></line><line x1="101" y1="108" x2="163" y2="170"></line><line x1="110" y1="108" x2="172" y2="170"></line><line x1="119" y1="108" x2="181" y2="170"></line><line x1="128" y1="108" x2="190" y2="170"></line><line x1="137" y1="108" x2="199" y2="170"></line><line x1="146" y1="108" x2="208" y2="170"></line><line x1="155" y1="108" x2="217" y2="170"></line><line x1="164" y1="108" x2="226" y2="170"></line><line x1="173" y1="108" x2="235" y2="170"></line><line x1="182" y1="108" x2="244" y2="170"></line><line x1="191" y1="108" x2="253" y2="170"></line><line x1="64" y1="108" x2="2" y2="170"></line><line x1="73" y1="108" x2="11" y2="170"></line><line x1="82" y1="108" x2="20" y2="170"></line><line x1="91" y1="108" x2="29" y2="170"></line><line x1="100" y1="108" x2="38" y2="170"></line><line x1="109" y1="108" x2="47" y2="170"></line><line x1="118" y1="108" x2="56" y2="170"></line><line x1="127" y1="108" x2="65" y2="170"></line><line x1="136" y1="108" x2="74" y2="170"></line><line x1="145" y1="108" x2="83" y2="170"></line><line x1="154" y1="108" x2="92" y2="170"></line><line x1="163" y1="108" x2="101" y2="170"></line><line x1="172" y1="108" x2="110" y2="170"></line><line x1="181" y1="108" x2="119" y2="170"></line><line x1="190" y1="108" x2="128" y2="170"></line><line x1="199" y1="108" x2="137" y2="170"></line><line x1="208" y1="108" x2="146" y2="170"></line><line x1="217" y1="108" x2="155" y2="170"></line><line x1="226" y1="108" x2="164" y2="170"></line><line x1="235" y1="108" x2="173" y2="170"></line><line x1="244" y1="108" x2="182" y2="170"></line><line x1="253" y1="108" x2="191" y2="170"></line></g></g><g><path d="M 94 116 Q 92 132.9387755102041 96 153.87755102040816" fill="none" stroke="#F06B8A" stroke-width="3" stroke-linecap="round" opacity="0.65"></path><path d="M 106 118 Q 110 135.0326530612245 105 157.87755102040816" fill="none" stroke="#F06B8A" stroke-width="2" stroke-linecap="round" opacity="0.5"></path><path d="M 70 114 L 100 164" fill="none" stroke="#C4956A" stroke-width="5" stroke-linecap="round" opacity="0.255"></path></g></svg>