<svg width="260" height="240" viewBox="4 30 192 176" class="mx-auto h-64 w-64 sm:h-72 sm:w-72 md:h-80 md:w-80" role="img"><defs><clipPath id="melt-v2-mouth-_R_6_"><path d="M 61.5 98 L 69.5 164.425 Q 100 168.95 130.5 164.425 L 138.5 98 Z"></path><path d="M 61.5 98 L 138.5 98 L 138.5 92 A 38.5 10 0 0 0 61.5 92 Z"></path></clipPath></defs><ellipse cx="100" cy="176" rx="71.2" ry="5.5" fill="rgba(15,23,42,0.12)"></ellipse><g><path d="M 58 98 C 62 93, 138 93, 142 98 L 134 163 Q 100 175 66 163 Z" fill="rgba(200,215,225,0.18)"></path><path d="M 64 114 Q 100 119 136 114" fill="none" stroke="#A8B8C4" stroke-width="2.5" opacity="0.4"></path><ellipse cx="100" cy="98" rx="42.5" ry="4.5" fill="rgba(220,232,240,0.35)"></ellipse></g><g clip-path="url(#melt-v2-mouth-_R_6_)"><g><g opacity="0.6623999999999999" transform="translate(95.26331486843706, 161.5959797766386) scale(0.94, 0.94) translate(-95.26331486843706, -161.5959797766386)"><g transform="translate(95.26331486843706, 112.43249994672652) rotate(-3.2547760754823685)"><path d="M -8.876913451131776 -8.533368884793841 Q 0 -9.89095029828377 9.07417819449026 -8.242458581903142 Q 10.06050191128268 0 8.679648707773293 8.727309086720973 Q 0 9.89095029828377 -8.876913451131776 8.533368884793841 Q -10.06050191128268 0 -8.876913451131776 -8.533368884793841 Z" fill="rgba(214,240,250,0.7)"></path><path d="M -8.166760375041234 -7.8506993740103335 Q 0 -9.099674274421067 8.34824393893104 -7.58306189535089 Q 9.255661758380066 0 7.985276811151429 8.029124359783296 Q 0 9.099674274421067 -8.166760375041234 7.8506993740103335 Q -9.255661758380066 0 -8.166760375041234 -7.8506993740103335 Z" fill="none" stroke="#6BA3C4" stroke-width="1" opacity="0.28"></path><path d="M -6.351924736143181 -3.7091063618564135 Q -1.3808532035093872 -4.581837270528511 6.075754095441304 -3.927289089024438 Q 7.249479318424283 -0.8727309086720973 6.559052716669589 3.578196725555599 Q 1.0356399026320404 4.712746906829326 -6.075754095441304 3.927289089024438 Q -7.456607298950692 0.4363654543360487 -6.351924736143181 -3.7091063618564135 Z" fill="#A8DFF8" opacity="0.32" transform="translate(1.1835884601509035, 2.7151628269798587)"></path><ellipse cx="-3.1562358937357424" cy="-3.684863836615522" rx="2.761706407018775" ry="1.3575814134899293" fill="#FFFFFF" opacity="0.32" transform="rotate(-18)"></ellipse><ellipse cx="1.4794855751886293" cy="-0.4848505048178319" rx="0.9863237167924196" ry="0.6787907067449647" fill="#FFFFFF" opacity="0.22"></ellipse></g></g><g opacity="0.6623999999999999" transform="translate(101.89967447807103, 161.5959797766386) scale(0.94, 0.94) translate(-101.89967447807103, -161.5959797766386)"><g transform="translate(101.89967447807103, 112.88409792177612) rotate(12.886081725358963)"><path d="M -7.915088907361601 -7.576545485881641 Q -1.720671501600348 -9.35926207079497 7.57095460704153 -8.022224632109973 Q 9.033525383401827 -1.7827165849133273 8.173189632601652 7.309137998144641 Q 1.290503626200261 9.626669558531969 -7.57095460704153 8.022224632109973 Q -9.291626108641879 0.8913582924566636 -7.915088907361601 -7.576545485881641 Z" fill="rgba(214,240,250,0.7)"></path><path d="M -7.281881794772673 -6.97042184701111 Q -1.5830177814723203 -8.610521105131372 6.965278238478208 -7.380446661541176 Q 8.310843352729682 -1.6400992581202614 7.5193344619935205 6.724406958293071 Q 1.1872633361042402 8.85653599384941 -6.965278238478208 7.380446661541176 Q -8.548296019950529 0.8200496290601307 -7.281881794772673 -6.97042184701111 Z" fill="none" stroke="#6BA3C4" stroke-width="1" opacity="0.28"></path><path d="M -5.118997717261034 -3.8105567002522367 Q 0.3011175127800609 -3.1286676065228893 5.901903250489193 -3.529778838128388 Q 5.4201152300410955 0.20055561580274933 4.938327209592997 3.8105567002522367 Q -0.3011175127800609 3.409445468646738 -5.901903250489193 3.1286676065228893 Q -5.2996682249290705 -0.20055561580274933 -5.118997717261034 -3.8105567002522367 Z" fill="#A8DFF8" opacity="0.32" transform="translate(1.0324029009602087, 2.4958032188786583)"></path><ellipse cx="-2.7530744025605567" cy="-3.387161511335322" rx="2.408940102240487" ry="1.2479016094393292" fill="#FFFFFF" opacity="0.32" transform="rotate(-18)"></ellipse><ellipse cx="1.290503626200261" cy="-0.4456791462283318" rx="0.860335750800174" ry="0.6239508047196646" fill="#FFFFFF" opacity="0.22"></ellipse></g></g><g opacity="0.6623999999999999" transform="translate(86.72727976301809, 161.5959797766386) scale(0.94, 0.94) translate(-86.72727976301809, -161.5959797766386)"><g transform="translate(86.72727976301809, 118.8159489800036) rotate(-13.3738367035985)"><path d="M -7.697485146884508 -5.836196766656965 Q -0.7854576680494396 -8.267945419430701 6.126569810785629 -7.700537400450162 Q 8.482942814933947 -1.2158743263868677 7.069119012444956 7.133129381469624 Q 0.3927288340247198 8.267945419430701 -6.440752878005404 7.700537400450162 Q -8.247305514519116 1.6211657685158238 -7.697485146884508 -5.836196766656965 Z" fill="rgba(214,240,250,0.7)"></path><path d="M -7.081686335133747 -5.3693010253244084 Q -0.7226210546054844 -7.606509785876246 5.636444225922778 -7.08449440841415 Q 7.804307389739232 -1.1186043802759185 6.50358949144936 6.562479030952055 Q 0.3613105273027422 7.606509785876246 -5.925492647764972 7.08449440841415 Q -7.587521073357586 1.491472507034558 -7.081686335133747 -5.3693010253244084 Z" fill="none" stroke="#6BA3C4" stroke-width="1" opacity="0.28"></path><path d="M -4.9483833087114695 -3.209908221661331 Q 0 -3.7205754387438157 5.0583473822383915 -3.1004795322865126 Q 5.608167749872999 0 4.838419235184548 3.2828606812445433 Q 0 3.7205754387438157 -4.9483833087114695 3.209908221661331 Q -5.608167749872999 0 -4.9483833087114695 -3.209908221661331 Z" fill="#A8DFF8" opacity="0.32" transform="translate(0.9425492016593274, 2.2696320759221535)"></path><ellipse cx="-2.5134645377582068" cy="-3.080214960180065" rx="2.199281470538431" ry="1.1348160379610768" fill="#FFFFFF" opacity="0.32" transform="rotate(-18)"></ellipse><ellipse cx="1.1781865020741593" cy="-0.40529144212895596" rx="0.7854576680494396" ry="0.5674080189805384" fill="#FFFFFF" opacity="0.22"></ellipse></g></g><g opacity="0.6623999999999999" transform="translate(97.7484333692596, 161.5959797766386) scale(0.94, 0.94) translate(-97.7484333692596, -161.5959797766386)"><g transform="translate(97.7484333692596, 126.30058482801914) rotate(-6.8020429983735085)"><path d="M -9.645127999319966 -8.891085386296972 Q -2.0967669563739055 -10.983105477190378 9.225774608045183 -9.414090409020323 Q 11.008026520963003 -2.0920200908934055 9.959643042776051 8.57728237266296 Q 1.572575217280429 11.29690849082439 -9.225774608045183 9.414090409020323 Q -11.32254156441909 1.0460100454467027 -9.645127999319966 -8.891085386296972 Z" fill="rgba(214,240,250,0.7)"></path><path d="M -8.87351775937437 -8.179798555393216 Q -1.9290255998639934 -10.104457039015148 8.48771263940157 -8.660963176298699 Q 10.127384399285965 -1.9246584836219331 9.162871599353966 7.891099782849925 Q 1.4467691998979948 10.393155811558438 -8.48771263940157 8.660963176298699 Q -10.416738239265564 0.9623292418109666 -8.87351775937437 -8.179798555393216 Z" fill="none" stroke="#6BA3C4" stroke-width="1" opacity="0.28"></path><path d="M -6.237881695212368 -4.471692944284653 Q 0.36693421736543347 -3.671495259517926 7.191910660362495 -4.1421997799689425 Q 6.604815912577802 0.2353522602255081 6.017721164793108 4.471692944284653 Q -0.36693421736543347 4.000988423833637 -7.191910660362495 3.671495259517926 Q -6.458042225631629 -0.2353522602255081 -6.237881695212368 -4.471692944284653 Z" fill="#A8DFF8" opacity="0.32" transform="translate(1.2580601738243433, 2.9288281272507675)"></path><ellipse cx="-3.354827130198249" cy="-3.97483817269747" rx="2.9354737389234677" ry="1.4644140636253837" fill="#FFFFFF" opacity="0.32" transform="rotate(-18)"></ellipse><ellipse cx="1.572575217280429" cy="-0.5230050227233514" rx="1.0483834781869528" ry="0.7322070318126919" fill="#FFFFFF" opacity="0.22"></ellipse></g></g><g opacity="0.6584419619715213" transform="translate(90.11010335846312, 161.5959797766386) scale(0.9407863493426144, 0.9350572327035666) translate(-90.11010335846312, -161.5959797766386)"><g transform="translate(90.11010335846312, 138.37324400860072) rotate(14.226527817547321)"><path d="M -10.660679573302298 -8.479681569835616 Q -1.0878244462553366 -12.01288222393379 8.485030680791626 -11.188468737977548 Q 11.748504019557634 -1.7666003270490866 9.790420016298029 10.36405525202131 Q 0.5439122231276683 12.01288222393379 -8.92016045929376 11.188468737977548 Q -11.422156685681033 2.3554671027321157 -10.660679573302298 -8.479681569835616 Z" fill="rgba(214,240,250,0.7)"></path><path d="M -9.807825207438114 -7.801307044248766 Q -1.0007984905549097 -11.051851646019086 7.806228226328295 -10.293391238939344 Q 10.808623697993024 -1.6252723008851597 9.007186414994186 9.534930831859604 Q 0.5003992452774548 11.051851646019086 -8.206547622550257 10.293391238939344 Q -10.50838415082655 2.1670297345135463 -9.807825207438114 -7.801307044248766 Z" fill="none" stroke="#6BA3C4" stroke-width="1" opacity="0.28"></path><path d="M -6.85329401140862 -4.663824863409589 Q 0 -5.405797000770206 7.005589433884366 -4.504830833975172 Q 7.767066546263102 0 6.7009985889328725 4.769820883032534 Q 0 5.405797000770206 -6.85329401140862 4.663824863409589 Q -7.767066546263102 0 -6.85329401140862 -4.663824863409589 Z" fill="#A8DFF8" opacity="0.32" transform="translate(1.3053893355064037, 3.297653943824962)"></path><ellipse cx="-3.481038228017077" cy="-4.475387495191019" rx="3.0459084495149424" ry="1.648826971912481" fill="#FFFFFF" opacity="0.32" transform="rotate(-18)"></ellipse><ellipse cx="1.6317366693830047" cy="-0.5888667756830289" rx="1.0878244462553366" ry="0.8244134859562405" fill="#FFFFFF" opacity="0.22"></ellipse></g></g><g opacity="0.8205351421597972" transform="translate(96.99019266471228, 161.5959797766386) scale(1.0012621740309522, 0.9920663346625864) translate(-96.99019266471228, -161.5959797766386)"><g transform="translate(96.99019266471228, 112.07245555708803) rotate(-12.132247634232044)"><path d="M -9.604325193692251 -7.203353911811892 Q -0.9800331830298217 -10.204751375066849 7.644258827632608 -9.504425300307357 Q 10.584358376722074 -1.5006987316274776 8.820298647268395 8.80409922554787 Q 0.49001659151491084 10.204751375066849 -8.036272100844537 9.504425300307357 Q -10.290348421813126 2.00093164216997 -9.604325193692251 -7.203353911811892 Z" fill="rgba(214,240,250,0.7)"></path><path d="M -8.835979178196872 -6.627085598866942 Q -0.901630528387436 -9.388371265061501 7.0327181214220005 -8.74407127628277 Q 9.737609706584308 -1.3806428330972795 8.114674755486924 8.09977128750404 Q 0.450815264193718 9.388371265061501 -7.393370332776975 8.74407127628277 Q -9.467120548068078 1.8408571107963727 -8.835979178196872 -6.627085598866942 Z" fill="none" stroke="#6BA3C4" stroke-width="1" opacity="0.38"></path><path d="M -6.174209053087876 -3.961844651496541 Q 0 -4.592138118780081 6.311413698712051 -3.826781765650068 Q 6.9974369268329255 0 6.037004407463701 4.05188657539419 Q 0 4.592138118780081 -6.174209053087876 3.961844651496541 Q -6.9974369268329255 0 -6.174209053087876 -3.961844651496541 Z" fill="#A8DFF8" opacity="0.32" transform="translate(1.176039819635786, 2.8013042990379584)"></path><ellipse cx="-3.136106185695429" cy="-3.8017701201229435" rx="2.7440929124835005" ry="1.4006521495189792" fill="#FFFFFF" opacity="0.48" transform="rotate(-18)"></ellipse><ellipse cx="1.4700497745447323" cy="-0.5002329105424925" rx="0.9800331830298217" ry="0.7003260747594896" fill="#FFFFFF" opacity="0.22"></ellipse></g></g><g opacity="0.7986055746935494" transform="translate(83.72399782342175, 161.5959797766386) scale(1.0049700719117187, 0.9687595479834825) translate(-83.72399782342175, -161.5959797766386)"><g transform="translate(83.72399782342175, 151.46513660342433) rotate(-14.176567792892456)"><path d="M -7.93092866418342 -9.624301014553543 Q 0.4665252155402012 -7.90205767510712 9.143894224587942 -8.915141992428545 Q 8.397453879723622 0.5065421586607128 7.651013534859299 9.624301014553543 Q -0.4665252155402012 8.611216697232118 -9.143894224587942 7.90205767510712 Q -8.210843793507541 -0.5065421586607128 -7.93092866418342 -9.624301014553543 Z" fill="rgba(214,240,250,0.7)"></path><path d="M -7.296454371048746 -8.85435693338926 Q 0.4292031982969851 -7.269893061098551 8.412382686620909 -8.201930633034262 Q 7.725657569345732 0.46601878596785584 7.038932452070555 8.85435693338926 Q -0.4292031982969851 7.922319361453549 -8.412382686620909 7.269893061098551 Q -7.553976290026938 -0.46601878596785584 -7.296454371048746 -8.85435693338926 Z" fill="none" stroke="#6BA3C4" stroke-width="1" opacity="0.38"></path><path d="M -6.40072595721156 -3.282393188121419 Q -0.6531353017562816 -4.650057016505344 5.094455353698997 -4.330935456549095 Q 7.053861258967842 -0.6838319141919623 5.878217715806535 4.011813896592845 Q 0.3265676508781408 4.650057016505344 -5.355709474401509 4.330935456549095 Q -6.857920668440958 0.9117758855892831 -6.40072595721156 -3.282393188121419 Z" fill="#A8DFF8" opacity="0.32" transform="translate(1.1196605172964829, 2.8366360884999917)"></path><ellipse cx="-2.9857613794572875" cy="-3.8497204058214174" rx="2.612541207025127" ry="1.4183180442499959" fill="#FFFFFF" opacity="0.48" transform="rotate(-18)"></ellipse><ellipse cx="1.3995756466206035" cy="-0.5065421586607128" rx="0.9330504310804024" ry="0.7091590221249979" fill="#FFFFFF" opacity="0.22"></ellipse></g></g><g opacity="0.9199999999999999" transform="translate(98.21908294465096, 161.5959797766386) scale(1.04, 1.04) translate(-98.21908294465096, -161.5959797766386)"><g transform="translate(98.21908294465096, 108.81327388675524) rotate(-2.0462827309966087)"><path d="M -11.527231220850904 -12.450235598488446 Q 0 -14.430954898247972 11.783391914647591 -12.025795748539975 Q 13.064195383631025 0 11.271070527054217 12.733195498454092 Q 0 14.430954898247972 -11.527231220850904 12.450235598488446 Q -13.064195383631025 0 -11.527231220850904 -12.450235598488446 Z" fill="rgba(214,240,250,0.7)"></path><path d="M -10.605052723182833 -11.45421675060937 Q 0 -13.276478506388134 10.840720561475784 -11.063732088656778 Q 12.019059752940544 0 10.36938488488988 11.714539858577766 Q 0 13.276478506388134 -10.605052723182833 11.45421675060937 Q -12.019059752940544 0 -10.605052723182833 -11.45421675060937 Z" fill="none" stroke="#6BA3C4" stroke-width="1" opacity="0.45"></path><path d="M -8.248374340253314 -5.411608086842989 Q -1.7931248565768074 -6.684927636688399 7.889749368937952 -5.729937974304342 Q 9.413905497028239 -1.2733195498454093 8.517343068739834 5.220610154366177 Q 1.3448436424326053 6.875925569165211 -7.889749368937952 5.729937974304342 Q -9.68287422551476 0.6366597749227046 -8.248374340253314 -5.411608086842989 Z" fill="#A8DFF8" opacity="0.32" transform="translate(1.5369641627801205, 3.9614385995190515)"></path><ellipse cx="-4.098571100746988" cy="-5.376238099347283" rx="3.586249713153615" ry="1.9807192997595258" fill="#FFFFFF" opacity="0.58" transform="rotate(-18)"></ellipse><ellipse cx="1.9212052034751506" cy="-0.7073997499141162" rx="1.280803468983434" ry="0.9903596498797629" fill="#FFFFFF" opacity="0.22"></ellipse></g></g><g opacity="0.9093999414447694" transform="translate(108.08199313158116, 161.5959797766386) scale(1.041677574484393, 1.0294552460981012) translate(-108.08199313158116, -161.5959797766386)"><g transform="translate(108.08199313158116, 112.28968059015219) rotate(10.512470617890358)"><path d="M -8.995684564152821 -8.780506151171872 Q 0 -10.177404857040123 9.19558866557844 -8.481170714200104 Q 10.19510917270653 0 8.795780462727203 8.98006310915305 Q 0 10.177404857040123 -8.995684564152821 8.780506151171872 Q -10.19510917270653 0 -8.995684564152821 -8.780506151171872 Z" fill="rgba(214,240,250,0.7)"></path><path d="M -8.276029799020595 -8.078065659078122 Q 0 -9.363212468476915 8.459941572332164 -7.802677057064096 Q 9.379500438890009 0 8.092118025709027 8.261658060420809 Q 0 9.363212468476915 -8.276029799020595 8.078065659078122 Q -9.379500438890009 0 -8.276029799020595 -8.078065659078122 Z" fill="none" stroke="#6BA3C4" stroke-width="1" opacity="0.45"></path><path d="M -6.436912065904908 -3.8165268213900463 Q -1.3993287099793277 -4.714533132305352 6.157046323909042 -4.041028399118873 Q 7.3464757273914705 -0.8980063109153051 6.646811372401806 3.6818258747527506 Q 1.0494965324844956 4.849234078942648 -6.157046323909042 4.041028399118873 Q -7.5563750338883695 0.44900315545765257 -6.436912065904908 -3.8165268213900463 Z" fill="#A8DFF8" opacity="0.32" transform="translate(1.1994246085537095, 2.793797411736505)"></path><ellipse cx="-3.1984656228098918" cy="-3.7915822016423992" rx="2.798657419958656" ry="1.3968987058682525" fill="#FFFFFF" opacity="0.58" transform="rotate(-18)"></ellipse><ellipse cx="1.4992807606921368" cy="-0.4988923949529473" rx="0.9995205071280913" ry="0.6984493529341262" fill="#FFFFFF" opacity="0.22"></ellipse></g></g></g></g><g><g><path d="M 57 98 L 65 168 L 88.1 168 L 82.36 98 Z" fill="rgba(186,210,228,0.18)"></path><path d="M 143 98 L 135 168 L 111.9 168 L 117.64 98 Z" fill="rgba(186,210,228,0.18)"></path><path d="M 88.1 158 L 67 168 Q 100 172 133 168 L 111.9 158 Q 100 162 88.1 158 Z" fill="rgba(186,210,228,0.18)" opacity="0.7"></path><ellipse cx="74" cy="120" rx="4.5" ry="14" fill="rgba(255,255,255,0.55)" opacity="0.35" transform="rotate(-12 74 120)"></ellipse></g><ellipse cx="74" cy="126" rx="4" ry="16" fill="rgba(255,255,255,0.55)" opacity="0.3" transform="rotate(-10 74 126)"></ellipse><g><ellipse cx="100" cy="98" rx="43.2" ry="4.2" fill="rgba(240,246,250,0.5)" stroke="rgba(122,147,168,0.5)" stroke-width="1.2"></ellipse><path d="M 68.896 97.6 A 36.72 2.94 0 0 1 95.68 95.69" fill="none" stroke="rgba(255,255,255,0.65)" stroke-width="1.4" stroke-linecap="round" opacity="0.7"></path></g></g></svg>