<svg width="260" height="240" viewBox="18 28 164 160" preserveAspectRatio="xMidYMid meet" overflow="visible" class="mx-auto aspect-square h-64 w-64 max-h-full max-w-full sm:h-72 sm:w-72 md:h-80 md:w-80 overflow-visible" role="img"><defs><clipPath id="melt-v2-inner-_R_6_"><path d="M 77.5 102 C 75.7 132.2125, 77.65938559309944 132.2125, 81.5 162.425 Q 100 163.95 118.5 162.425 C 122.34061440690056 132.2125, 124.3 132.2125, 122.5 102 L 122.5 78 A 22.5 16 0 0 0 77.5 78 L 77.5 102 Z"></path></clipPath></defs><g><path d="M 74 102 C 77 97, 123 97, 126 102 C 130 120, 128 146, 122 164 Q 100 173 78 164 C 72 146, 70 120, 74 102 Z" fill="rgba(198,218,232,0.45)" stroke="rgba(120,150,175,0.85)" stroke-width="1.7" stroke-linejoin="round"></path><ellipse cx="100" cy="102" rx="26.5" ry="4.5" fill="rgba(220,232,240,0.55)"></ellipse><path d="M 84 112 Q 100 110 116 112 L 114 148 Q 100 152 86 148 Z" fill="rgba(160,185,205,0.18)" opacity="0.55"></path></g><g clip-path="url(#melt-v2-inner-_R_6_)"><g><g opacity="0.8265" transform="translate(113.5, 165) scale(1.0155075313365125, 0.8166653558520424) translate(-113.5, -165) translate(113.5, 106.18913195262918) rotate(25)"><rect x="-5.8" y="-5.8" width="11.6" height="11.6" rx="4.06" fill="#C8ECFF"></rect><rect x="-5.8" y="-5.8" width="11.6" height="11.6" rx="4.06" fill="none" stroke="#4F8FB8" stroke-width="1.4" opacity="0.9"></rect><path d="M 4.6 -0.29 L 4.6 3.4452000000000003 Q 4.6 4.6 3.5669999999999997 4.6 L -1.044 4.6" fill="none" stroke="#7BB8E0" stroke-width="1.2" stroke-linecap="round" opacity="0.58"></path><rect x="-3.364" y="-3.3059999999999996" width="3.596" height="1.8" rx="0.9" fill="#FFFFFF" opacity="0.6345" transform="rotate(-18 -1.5659999999999998 -2.4059999999999997)"></rect></g><g opacity="0.8265" transform="translate(93, 165) scale(0.9981141421556196, 0.8966749460841499) translate(-93, -165) translate(93, 118.10313970737587) rotate(-75)"><rect x="-6.4" y="-6.2" width="12.8" height="12.4" rx="4.4799999999999995" fill="#C8ECFF"></rect><rect x="-6.4" y="-6.2" width="12.8" height="12.4" rx="4.4799999999999995" fill="none" stroke="#4F8FB8" stroke-width="1.4" opacity="0.9"></rect><path d="M 5.2 -0.31000000000000005 L 5.2 3.601600000000001 Q 5.2 5 3.9360000000000004 5 L -1.152 5" fill="none" stroke="#7BB8E0" stroke-width="1.2" stroke-linecap="round" opacity="0.58"></path><rect x="-3.7119999999999997" y="-3.534" width="3.968" height="1.8" rx="0.9" fill="#FFFFFF" opacity="0.6345" transform="rotate(-18 -1.7279999999999998 -2.634)"></rect></g><g opacity="0.8265" transform="translate(100, 165) scale(0.9956765518834859, 0.9078878613359647) translate(-100, -165) translate(100, 130.5935794168555) rotate(-60)"><rect x="-6.8" y="-6.5" width="13.6" height="13" rx="4.76" fill="#C8ECFF"></rect><rect x="-6.8" y="-6.5" width="13.6" height="13" rx="4.76" fill="none" stroke="#4F8FB8" stroke-width="1.4" opacity="0.9"></rect><path d="M 5.6 -0.325 L 5.6 3.7392000000000003 Q 5.6 5.3 4.182 5.3 L -1.224 5.3" fill="none" stroke="#7BB8E0" stroke-width="1.2" stroke-linecap="round" opacity="0.58"></path><rect x="-3.9439999999999995" y="-3.7049999999999996" width="4.216" height="1.8" rx="0.9" fill="#FFFFFF" opacity="0.6345" transform="rotate(-18 -1.8359999999999994 -2.8049999999999997)"></rect></g><g opacity="0.8265" transform="translate(94, 165) scale(1.0121564728741306, 0.8320802247789989) translate(-94, -165) translate(94, 145.18604816448604) rotate(75)"><rect x="-6.5" y="-6.3" width="13" height="12.6" rx="4.55" fill="#C8ECFF"></rect><rect x="-6.5" y="-6.3" width="13" height="12.6" rx="4.55" fill="none" stroke="#4F8FB8" stroke-width="1.4" opacity="0.9"></rect><path d="M 5.3 -0.315 L 5.3 3.661 Q 5.3 5.1 3.9975 5.1 L -1.17 5.1" fill="none" stroke="#7BB8E0" stroke-width="1.2" stroke-linecap="round" opacity="0.58"></path><rect x="-3.7699999999999996" y="-3.5909999999999997" width="4.03" height="1.8" rx="0.9" fill="#FFFFFF" opacity="0.6345" transform="rotate(-18 -1.7549999999999994 -2.691)"></rect></g><g opacity="0.8265" transform="translate(88, 165) scale(1.0039850994743569, 0.8696685424179585) translate(-88, -165) translate(88, 158.04874423933313) rotate(5)"><rect x="-5.8" y="-6" width="11.6" height="12" rx="4.06" fill="#C8ECFF"></rect><rect x="-5.8" y="-6" width="11.6" height="12" rx="4.06" fill="none" stroke="#4F8FB8" stroke-width="1.4" opacity="0.9"></rect><path d="M 4.6 -0.30000000000000004 L 4.6 3.6452000000000004 Q 4.6 4.8 3.5669999999999997 4.8 L -1.044 4.8" fill="none" stroke="#7BB8E0" stroke-width="1.2" stroke-linecap="round" opacity="0.58"></path><rect x="-3.364" y="-3.42" width="3.596" height="1.8" rx="0.9" fill="#FFFFFF" opacity="0.6345" transform="rotate(-18 -1.5659999999999998 -2.52)"></rect></g><g opacity="0.8526" transform="translate(107, 165) scale(1.0337474997618248, 0.8447615010956063) translate(-107, -165) translate(107, 94.18831104867098) rotate(-40)"><rect x="-6" y="-6.2" width="12" height="12.4" rx="4.199999999999999" fill="#C8ECFF"></rect><rect x="-6" y="-6.2" width="12" height="12.4" rx="4.199999999999999" fill="none" stroke="#4F8FB8" stroke-width="1.4" opacity="0.95"></rect><path d="M 4.8 -0.31000000000000005 L 4.8 3.7640000000000007 Q 4.8 5 3.6900000000000004 5 L -1.08 5" fill="none" stroke="#7BB8E0" stroke-width="1.2" stroke-linecap="round" opacity="0.58"></path><rect x="-3.4799999999999995" y="-3.534" width="3.7199999999999998" height="1.8" rx="0.9" fill="#FFFFFF" opacity="0.6345" transform="rotate(-18 -1.6199999999999997 -2.634)"></rect></g><g opacity="0.8526" transform="translate(100, 165) scale(1.0210850690954127, 0.9030086821611012) translate(-100, -165) translate(100, 104.61765468555241) rotate(80)"><rect x="-6.5" y="-6.2" width="13" height="12.4" rx="4.55" fill="#C8ECFF"></rect><rect x="-6.5" y="-6.2" width="13" height="12.4" rx="4.55" fill="none" stroke="#4F8FB8" stroke-width="1.4" opacity="0.95"></rect><path d="M 5.3 -0.31000000000000005 L 5.3 3.5610000000000004 Q 5.3 5 3.9975 5 L -1.17 5" fill="none" stroke="#7BB8E0" stroke-width="1.2" stroke-linecap="round" opacity="0.58"></path><rect x="-3.7699999999999996" y="-3.534" width="4.03" height="1.8" rx="0.9" fill="#FFFFFF" opacity="0.6345" transform="rotate(-18 -1.7549999999999994 -2.634)"></rect></g><g opacity="0.8526" transform="translate(107, 165) scale(1.0222611875293903, 0.8975985373648043) translate(-107, -165) translate(107, 118.12622093329165) rotate(35)"><rect x="-6.5" y="-6.3" width="13" height="12.6" rx="4.55" fill="#C8ECFF"></rect><rect x="-6.5" y="-6.3" width="13" height="12.6" rx="4.55" fill="none" stroke="#4F8FB8" stroke-width="1.4" opacity="0.95"></rect><path d="M 5.3 -0.315 L 5.3 3.661 Q 5.3 5.1 3.9975 5.1 L -1.17 5.1" fill="none" stroke="#7BB8E0" stroke-width="1.2" stroke-linecap="round" opacity="0.58"></path><rect x="-3.7699999999999996" y="-3.5909999999999997" width="4.03" height="1.8" rx="0.9" fill="#FFFFFF" opacity="0.6345" transform="rotate(-18 -1.7549999999999994 -2.691)"></rect></g><g opacity="0.8526" transform="translate(85.5, 165) scale(1.0364517895829306, 0.8323217679185192) translate(-85.5, -165) translate(85.5, 132.1902783416229) rotate(12)"><rect x="-5.8" y="-5.8" width="11.6" height="11.6" rx="4.06" fill="#C8ECFF"></rect><rect x="-5.8" y="-5.8" width="11.6" height="11.6" rx="4.06" fill="none" stroke="#4F8FB8" stroke-width="1.4" opacity="0.95"></rect><path d="M 4.6 -0.29 L 4.6 3.4452000000000003 Q 4.6 4.6 3.5669999999999997 4.6 L -1.044 4.6" fill="none" stroke="#7BB8E0" stroke-width="1.2" stroke-linecap="round" opacity="0.58"></path><rect x="-3.364" y="-3.3059999999999996" width="3.596" height="1.8" rx="0.9" fill="#FFFFFF" opacity="0.6345" transform="rotate(-18 -1.5659999999999998 -2.4059999999999997)"></rect></g><g opacity="0.8526" transform="translate(100, 165) scale(1.017262062394959, 0.9205945129831877) translate(-100, -165) translate(100, 158.69942947939495) rotate(-30)"><rect x="-6.8" y="-6.4" width="13.6" height="12.8" rx="4.76" fill="#C8ECFF"></rect><rect x="-6.8" y="-6.4" width="13.6" height="12.8" rx="4.76" fill="none" stroke="#4F8FB8" stroke-width="1.4" opacity="0.95"></rect><path d="M 5.6 -0.32000000000000006 L 5.6 3.6392000000000007 Q 5.6 5.2 4.182 5.2 L -1.224 5.2" fill="none" stroke="#7BB8E0" stroke-width="1.2" stroke-linecap="round" opacity="0.58"></path><rect x="-3.9439999999999995" y="-3.6479999999999997" width="4.216" height="1.8" rx="0.9" fill="#FFFFFF" opacity="0.6345" transform="rotate(-18 -1.8359999999999994 -2.7479999999999998)"></rect></g><g opacity="0.87" transform="translate(93, 165) scale(1.0373729904143671, 0.9400842440939113) translate(-93, -165) translate(93, 94.09197465513489) rotate(55)"><rect x="-6.2" y="-6" width="12.4" height="12" rx="4.34" fill="#C8ECFF"></rect><rect x="-6.2" y="-6" width="12.4" height="12" rx="4.34" fill="none" stroke="#4F8FB8" stroke-width="1.4" opacity="1"></rect><path d="M 5 -0.30000000000000004 L 5 3.4828 Q 5 4.8 3.813 4.8 L -1.1159999999999999 4.8" fill="none" stroke="#7BB8E0" stroke-width="1.2" stroke-linecap="round" opacity="0.58"></path><rect x="-3.5959999999999996" y="-3.42" width="3.844" height="1.8" rx="0.9" fill="#FFFFFF" opacity="0.6345" transform="rotate(-18 -1.6739999999999997 -2.52)"></rect></g><g opacity="0.87" transform="translate(86.5, 165) scale(1.0521857443503564, 0.8719455759883606) translate(-86.5, -165) translate(86.5, 106.16471527991065) rotate(-15)"><rect x="-5.8" y="-5.8" width="11.6" height="11.6" rx="4.06" fill="#C8ECFF"></rect><rect x="-5.8" y="-5.8" width="11.6" height="11.6" rx="4.06" fill="none" stroke="#4F8FB8" stroke-width="1.4" opacity="1"></rect><path d="M 4.6 -0.29 L 4.6 3.4452000000000003 Q 4.6 4.6 3.5669999999999997 4.6 L -1.044 4.6" fill="none" stroke="#7BB8E0" stroke-width="1.2" stroke-linecap="round" opacity="0.58"></path><rect x="-3.364" y="-3.3059999999999996" width="3.596" height="1.8" rx="0.9" fill="#FFFFFF" opacity="0.6345" transform="rotate(-18 -1.5659999999999998 -2.4059999999999997)"></rect></g><g opacity="0.87" transform="translate(114.5, 165) scale(1.0551168943163902, 0.8584622861446057) translate(-114.5, -165) translate(114.5, 132.1797158709133) rotate(18)"><rect x="-5.8" y="-5.8" width="11.6" height="11.6" rx="4.06" fill="#C8ECFF"></rect><rect x="-5.8" y="-5.8" width="11.6" height="11.6" rx="4.06" fill="none" stroke="#4F8FB8" stroke-width="1.4" opacity="1"></rect><path d="M 4.6 -0.29 L 4.6 3.4452000000000003 Q 4.6 4.6 3.5669999999999997 4.6 L -1.044 4.6" fill="none" stroke="#7BB8E0" stroke-width="1.2" stroke-linecap="round" opacity="0.58"></path><rect x="-3.364" y="-3.3059999999999996" width="3.596" height="1.8" rx="0.9" fill="#FFFFFF" opacity="0.6345" transform="rotate(-18 -1.5659999999999998 -2.4059999999999997)"></rect></g><g opacity="0.87" transform="translate(106, 165) scale(1.0381712128420995, 0.9364124209263422) translate(-106, -165) translate(106, 145.1042172501238) rotate(-45)"><rect x="-6.4" y="-6.5" width="12.8" height="13" rx="4.4799999999999995" fill="#C8ECFF"></rect><rect x="-6.4" y="-6.5" width="12.8" height="13" rx="4.4799999999999995" fill="none" stroke="#4F8FB8" stroke-width="1.4" opacity="1"></rect><path d="M 5.2 -0.325 L 5.2 3.9016000000000006 Q 5.2 5.3 3.9360000000000004 5.3 L -1.152 5.3" fill="none" stroke="#7BB8E0" stroke-width="1.2" stroke-linecap="round" opacity="0.58"></path><rect x="-3.7119999999999997" y="-3.7049999999999996" width="3.968" height="1.8" rx="0.9" fill="#FFFFFF" opacity="0.6345" transform="rotate(-18 -1.7279999999999998 -2.8049999999999997)"></rect></g><g opacity="0.87" transform="translate(112, 165) scale(1.0412950841427417, 0.9220426129433881) translate(-112, -165) translate(112, 158.02932012706685) rotate(-5)"><rect x="-5.8" y="-6" width="11.6" height="12" rx="4.06" fill="#C8ECFF"></rect><rect x="-5.8" y="-6" width="11.6" height="12" rx="4.06" fill="none" stroke="#4F8FB8" stroke-width="1.4" opacity="1"></rect><path d="M 4.6 -0.30000000000000004 L 4.6 3.6452000000000004 Q 4.6 4.8 3.5669999999999997 4.8 L -1.044 4.8" fill="none" stroke="#7BB8E0" stroke-width="1.2" stroke-linecap="round" opacity="0.58"></path><rect x="-3.364" y="-3.42" width="3.596" height="1.8" rx="0.9" fill="#FFFFFF" opacity="0.6345" transform="rotate(-18 -1.5659999999999998 -2.52)"></rect></g></g><g><rect x="81.87853830344646" y="159.0137694953363" width="36.24292339310708" height="7.411230504663706" fill="#A8DFF8" opacity="0.5"></rect><ellipse cx="100" cy="159.0137694953363" rx="17.12146169655354" ry="4" fill="#A8DFF8" opacity="0.58"></ellipse></g></g><g><g><path d="M 73.5 102 C 72.5 146.3, 76.5 158, 77.5 164 L 82.5 164 C 83.94 159, 84.94 146.3, 84.94 102 Z" fill="rgba(186,210,228,0.11)"></path><path d="M 126.5 102 C 127.5 146.3, 123.5 158, 122.5 164 L 117.5 164 C 116.06 159, 115.06 146.3, 115.06 102 Z" fill="rgba(186,210,228,0.11)"></path><ellipse cx="82" cy="124" rx="4.5" ry="14" fill="rgba(255,255,255,0.72)" opacity="0.5" transform="rotate(-12 82 124)"></ellipse><path d="M 79.5 163 Q 100 167 120.5 163" fill="none" stroke="rgba(150,180,205,0.55)" stroke-width="1.2" stroke-linecap="round" opacity="0.35"></path></g><g><path d="M 77 157 Q 100 161 123 157 L 123.5 171 Q 100 175 76.5 171 Z" fill="rgba(190,216,234,0.5)"></path><path d="M 80 161 Q 100 166 120 161" fill="none" stroke="rgba(255,255,255,0.58)" stroke-width="1.5" stroke-linecap="round"></path><path d="M 77 171 Q 100 175 123 171" fill="none" stroke="rgba(130,160,185,0.88)" stroke-width="1.35" stroke-linecap="round" opacity="0.75"></path></g><ellipse cx="82" cy="124" rx="3.8" ry="14" fill="rgba(255,255,255,0.72)" opacity="0.55" transform="rotate(-12 82 124)"></ellipse><g fill="none" stroke="rgba(130,160,185,0.88)" stroke-linecap="round"><path d="M 77.5 102 A 22.5 4.2 0 0 0 122.5 102" stroke-width="1.9"></path><path d="M 77.5 100.8 Q 77 102 78.5 103.5" stroke-width="1.5"></path><path d="M 122.5 100.8 Q 123 102 121.5 103.5" stroke-width="1.5"></path><path d="M 83.8 101.6 A 19.125 2.94 0 0 1 97.75 99.69" stroke="rgba(255,255,255,0.8)" stroke-width="1.5" opacity="0.85"></path></g></g><g opacity="0.275"><ellipse cx="86.34978086194303" cy="110.58863636363635" rx="2.6545454545454543" ry="4.181818181818182" fill="#93C5FD"></ellipse><ellipse cx="95.449926953981" cy="115.34440298507462" rx="2.3940298507462687" ry="3.791044776119403" fill="#93C5FD"></ellipse><ellipse cx="102.2750365230095" cy="110.1743670886076" rx="2.212658227848101" ry="3.518987341772152" fill="#93C5FD"></ellipse><ellipse cx="109.10014609203799" cy="115.58863636363635" rx="2.6545454545454543" ry="4.181818181818182" fill="#93C5FD"></ellipse><ellipse cx="115.92525566106647" cy="110.34440298507462" rx="2.3940298507462687" ry="3.791044776119403" fill="#93C5FD"></ellipse></g></svg>