<svg width="260" height="240" viewBox="4 30 192 176" class="mx-auto h-64 w-64 sm:h-72 sm:w-72 md:h-80 md:w-80" role="img"><defs><clipPath id="melt-v2-mouth-_R_6_"><path d="M 77.5 102 L 81.5 162.425 Q 100 163.95 118.5 162.425 L 122.5 102 Z"></path><path d="M 77.5 102 L 122.5 102 L 122.5 96 A 22.5 8 0 0 0 77.5 96 Z"></path></clipPath></defs><ellipse cx="100" cy="174" rx="49.6" ry="5" fill="rgba(0,0,0,0.35)"></ellipse><g><path d="M 74 102 C 76 98, 124 98, 126 102 L 122 158 Q 100 170 78 158 Z" fill="rgba(186,210,228,0.28)" stroke="#8FA8BC" stroke-width="2" stroke-linejoin="round"></path><ellipse cx="100" cy="102" rx="27" ry="5" fill="rgba(232,238,244,0.55)" stroke="#8FA8BC" stroke-width="2"></ellipse></g><g clip-path="url(#melt-v2-mouth-_R_6_)"><g><g opacity="1" transform="translate(89.51945368322674, 163.24821526775972) scale(1, 1) translate(-89.51945368322674, -163.24821526775972)"><g transform="translate(89.51945368322674, 156.0541845617816) rotate(12.192975186277181)"><rect x="-6.6500519566562" y="-7.194030705978118" width="13.3001039133124" height="14.388061411956237" rx="1.8620145478637362" fill="#D6F0FA" stroke="#6BA3C4" stroke-width="1.6"></rect><path d="M -6.6500519566562 1.0791046058967178 L 6.6500519566562 1.0791046058967178 L 6.6500519566562 5.395523029483589 Q 6.6500519566562 7.194030705978118 3.99003117399372 7.194030705978118 L -3.99003117399372 7.194030705978118 Q -6.6500519566562 7.194030705978118 -6.6500519566562 5.395523029483589 Z" fill="#A8DFF8" opacity="0.5"></path><rect x="-2.99252338049529" y="-3.9567168882879655" width="2.66002078266248" height="1.4388061411956237" rx="2" fill="#FFFFFF" opacity="0.55"></rect></g></g><g opacity="0.998176809027791" transform="translate(96.92997208919054, 163.24821526775972) scale(1.0002734786458314, 0.9983591281250119) translate(-96.92997208919054, -163.24821526775972)"><g transform="translate(96.92997208919054, 156.91923888921738) rotate(-5.285782189574093)"><rect x="-4.630650807156173" y="-4.785477021364971" width="9.261301614312346" height="9.570954042729943" rx="1.2965822260037285" fill="#D6F0FA" stroke="#6BA3C4" stroke-width="1.6"></rect><path d="M -4.630650807156173 0.7178215532047457 L 4.630650807156173 0.7178215532047457 L 4.630650807156173 3.5891077660237283 Q 4.630650807156173 4.785477021364971 2.7783904842937037 4.785477021364971 L -2.7783904842937037 4.785477021364971 Q -4.630650807156173 4.785477021364971 -4.630650807156173 3.5891077660237283 Z" fill="#A8DFF8" opacity="0.5"></path><rect x="-2.083792863220278" y="-2.6320123617507343" width="1.8522603228624694" height="0.9570954042729943" rx="2" fill="#FFFFFF" opacity="0.55"></rect></g></g><g opacity="1" transform="translate(104.43042225012532, 163.24821526775972) scale(1, 1) translate(-104.43042225012532, -163.24821526775972)"><g transform="translate(104.43042225012532, 156.1566778744571) rotate(2.4942277064546943)"><rect x="-6.395526539249776" y="-6.924508361631617" width="12.791053078499552" height="13.849016723263235" rx="1.7907474309899374" fill="#D6F0FA" stroke="#6BA3C4" stroke-width="1.6"></rect><path d="M -6.395526539249776 1.0386762542447425 L 6.395526539249776 1.0386762542447425 L 6.395526539249776 5.193381271223713 Q 6.395526539249776 6.924508361631617 3.8373159235498653 6.924508361631617 L -3.8373159235498653 6.924508361631617 Q -6.395526539249776 6.924508361631617 -6.395526539249776 5.193381271223713 Z" fill="#A8DFF8" opacity="0.5"></path><rect x="-2.877986942662399" y="-3.80847959889739" width="2.5582106156999105" height="1.3849016723263237" rx="2" fill="#FFFFFF" opacity="0.55"></rect></g></g><g opacity="1" transform="translate(86.49513871416252, 163.24821526775972) scale(1, 1) translate(-86.49513871416252, -163.24821526775972)"><g transform="translate(86.49513871416252, 145.5405834032261) rotate(-10.374357811640948)"><rect x="-4.8611554941629205" y="-5.169570452577391" width="9.722310988325841" height="10.339140905154782" rx="1.361123538365618" fill="#D6F0FA" stroke="#6BA3C4" stroke-width="1.6"></rect><path d="M -4.8611554941629205 0.7754355678866086 L 4.8611554941629205 0.7754355678866086 L 4.8611554941629205 3.877177839433043 Q 4.8611554941629205 5.169570452577391 2.916693296497752 5.169570452577391 L -2.916693296497752 5.169570452577391 Q -4.8611554941629205 5.169570452577391 -4.8611554941629205 3.877177839433043 Z" fill="#A8DFF8" opacity="0.5"></path><rect x="-2.1875199723733143" y="-2.843263748917565" width="1.9444621976651684" height="1.0339140905154782" rx="2" fill="#FFFFFF" opacity="0.55"></rect></g></g><g opacity="0.9708630621060729" transform="translate(96.31754016539556, 163.24821526775972) scale(1.004370540684089, 0.9737767558954656) translate(-96.31754016539556, -163.24821526775972)"><g transform="translate(96.31754016539556, 148.81161886863543) rotate(-7.4056124640628695)"><rect x="-5.063487385983033" y="-5.1721429992169865" width="10.126974771966067" height="10.344285998433973" rx="1.4177764680752494" fill="#D6F0FA" stroke="#6BA3C4" stroke-width="1.6"></rect><path d="M -5.063487385983033 0.775821449882548 L 5.063487385983033 0.775821449882548 L 5.063487385983033 3.8791072494127397 Q 5.063487385983033 5.1721429992169865 3.03809243158982 5.1721429992169865 L -3.03809243158982 5.1721429992169865 Q -5.063487385983033 5.1721429992169865 -5.063487385983033 3.8791072494127397 Z" fill="#A8DFF8" opacity="0.5"></path><rect x="-2.278569323692365" y="-2.844678649569343" width="2.0253949543932133" height="1.0344285998433973" rx="2" fill="#FFFFFF" opacity="0.55"></rect></g></g><g opacity="1" transform="translate(105.00259077599075, 163.24821526775972) scale(1, 1) translate(-105.00259077599075, -163.24821526775972)"><g transform="translate(105.00259077599075, 144.54850489916967) rotate(0.7203347464092076)"><rect x="-6.468735347314173" y="-6.533664613655818" width="12.937470694628345" height="13.067329227311635" rx="1.8112458972479686" fill="#D6F0FA" stroke="#6BA3C4" stroke-width="1.6"></rect><path d="M -6.468735347314173 0.9800496920483726 L 6.468735347314173 0.9800496920483726 L 6.468735347314173 4.900248460241864 Q 6.468735347314173 6.533664613655818 3.8812412083885035 6.533664613655818 L -3.8812412083885035 6.533664613655818 Q -6.468735347314173 6.533664613655818 -6.468735347314173 4.900248460241864 Z" fill="#A8DFF8" opacity="0.5"></path><rect x="-2.910930906291378" y="-3.5935155375107" width="2.587494138925669" height="1.3067329227311637" rx="2" fill="#FFFFFF" opacity="0.55"></rect></g></g><g opacity="1" transform="translate(112.95890413749336, 163.24821526775972) scale(1, 1) translate(-112.95890413749336, -163.24821526775972)"><g transform="translate(112.95890413749336, 145.7819988493991) rotate(9.722171314060688)"><rect x="-5.433640540564729" y="-5.300170663426396" width="10.867281081129457" height="10.600341326852792" rx="1.484047785759391" fill="#D6F0FA" stroke="#6BA3C4" stroke-width="1.6"></rect><path d="M -5.433640540564729 0.7950255995139593 L 5.433640540564729 0.7950255995139593 L 5.433640540564729 3.975127997569797 Q 5.433640540564729 5.300170663426396 3.260184324338837 5.300170663426396 L -3.260184324338837 5.300170663426396 Q -5.433640540564729 5.300170663426396 -5.433640540564729 3.975127997569797 Z" fill="#A8DFF8" opacity="0.5"></path><rect x="-2.445138243254128" y="-2.915093864884518" width="2.1734562162258917" height="1.0600341326852794" rx="2" fill="#FFFFFF" opacity="0.55"></rect></g></g><g opacity="0.9642757063731551" transform="translate(89.30766565925465, 163.24821526775972) scale(1.0053586440440268, 0.9678481357358396) translate(-89.30766565925465, -163.24821526775972)"><g transform="translate(89.30766565925465, 134.65973999016745) rotate(12.399749957956374)"><rect x="-7.587901926580689" y="-7.56127296048125" width="15.175803853161378" height="15.1225459209625" rx="2.11715642893475" fill="#D6F0FA" stroke="#6BA3C4" stroke-width="1.6"></rect><path d="M -7.587901926580689 1.1341909440721873 L 7.587901926580689 1.1341909440721873 L 7.587901926580689 5.670954720360937 Q 7.587901926580689 7.56127296048125 4.552741155948413 7.56127296048125 L -4.552741155948413 7.56127296048125 Q -7.587901926580689 7.56127296048125 -7.587901926580689 5.670954720360937 Z" fill="#A8DFF8" opacity="0.5"></path><rect x="-3.4145558669613103" y="-4.158700128264687" width="3.0351607706322756" height="1.51225459209625" rx="2" fill="#FFFFFF" opacity="0.55"></rect></g></g><g opacity="1" transform="translate(99.72960687887013, 163.24821526775972) scale(1, 1) translate(-99.72960687887013, -163.24821526775972)"><g transform="translate(99.72960687887013, 139.64738724797147) rotate(7.67392043909058)"><rect x="-6.535084749202136" y="-5.842088621446984" width="13.070169498404272" height="11.684177242893968" rx="1.6357848140051556" fill="#D6F0FA" stroke="#6BA3C4" stroke-width="1.6"></rect><path d="M -6.535084749202136 0.8763132932170475 L 6.535084749202136 0.8763132932170475 L 6.535084749202136 4.381566466085238 Q 6.535084749202136 5.842088621446984 3.9210508495212815 5.842088621446984 L -3.9210508495212815 5.842088621446984 Q -6.535084749202136 5.842088621446984 -6.535084749202136 4.381566466085238 Z" fill="#A8DFF8" opacity="0.5"></path><rect x="-2.940788137140961" y="-3.2131487417958415" width="2.6140338996808548" height="1.168417724289397" rx="2" fill="#FFFFFF" opacity="0.55"></rect></g></g><g opacity="0.9664792615920306" transform="translate(108.73558272967279, 163.24821526775972) scale(1.0050281107611954, 0.9698313354328275) translate(-108.73558272967279, -163.24821526775972)"><g transform="translate(108.73558272967279, 134.75955430984325) rotate(3.084612149745226)"><rect x="-5.641803465618188" y="-5.105285975670613" width="11.283606931236376" height="10.210571951341226" rx="1.4294800731877717" fill="#D6F0FA" stroke="#6BA3C4" stroke-width="1.6"></rect><path d="M -5.641803465618188 0.7657928963505919 L 5.641803465618188 0.7657928963505919 L 5.641803465618188 3.82896448175296 Q 5.641803465618188 5.105285975670613 3.3850820793709127 5.105285975670613 L -3.3850820793709127 5.105285975670613 Q -5.641803465618188 5.105285975670613 -5.641803465618188 3.82896448175296 Z" fill="#A8DFF8" opacity="0.5"></path><rect x="-2.5388115595281846" y="-2.8079072866188373" width="2.2567213862472753" height="1.0210571951341227" rx="2" fill="#FFFFFF" opacity="0.55"></rect></g></g><g opacity="0.9847117542661726" transform="translate(85.94975612516572, 163.24821526775972) scale(1.002293236860074, 0.9862405788395554) translate(-85.94975612516572, -163.24821526775972)"><g transform="translate(85.94975612516572, 123.01095001346599) rotate(-5.5420570550486445)"><rect x="-6.105162866276319" y="-5.937517016220216" width="12.210325732552638" height="11.875034032440432" rx="1.6625047645416606" fill="#D6F0FA" stroke="#6BA3C4" stroke-width="1.6"></rect><path d="M -6.105162866276319 0.8906275524330324 L 6.105162866276319 0.8906275524330324 L 6.105162866276319 4.453137762165162 Q 6.105162866276319 5.937517016220216 3.6630977197657915 5.937517016220216 L -3.6630977197657915 5.937517016220216 Q -6.105162866276319 5.937517016220216 -6.105162866276319 4.453137762165162 Z" fill="#A8DFF8" opacity="0.5"></path><rect x="-2.747323289824344" y="-3.265634358921119" width="2.4420651465105276" height="1.1875034032440432" rx="2" fill="#FFFFFF" opacity="0.55"></rect></g></g><g opacity="1" transform="translate(114.37945822881633, 163.24821526775972) scale(1, 1) translate(-114.37945822881633, -163.24821526775972)"><g transform="translate(114.37945822881633, 126.01902441805979) rotate(-9.682998165022582)"><rect x="-5.267432455397919" y="-5.48524391611285" width="10.534864910795838" height="10.9704878322257" rx="1.4748810875114173" fill="#D6F0FA" stroke="#6BA3C4" stroke-width="1.6"></rect><path d="M -5.267432455397919 0.8227865874169275 L 5.267432455397919 0.8227865874169275 L 5.267432455397919 4.113932937084638 Q 5.267432455397919 5.48524391611285 3.160459473238751 5.48524391611285 L -3.160459473238751 5.48524391611285 Q -5.267432455397919 5.48524391611285 -5.267432455397919 4.113932937084638 Z" fill="#A8DFF8" opacity="0.5"></path><rect x="-2.3703446049290635" y="-3.0168841538620677" width="2.1069729821591676" height="1.0970487832225702" rx="2" fill="#FFFFFF" opacity="0.55"></rect></g></g><g opacity="0.9674003761447966" transform="translate(94.7705140918702, 163.24821526775972) scale(1.0048899435782805, 0.970660338530317) translate(-94.7705140918702, -163.24821526775972)"><g transform="translate(94.7705140918702, 113.92227564725637) rotate(-13.220530035439879)"><rect x="-4.565595100428163" y="-5.001157349989401" width="9.131190200856325" height="10.002314699978802" rx="1.2783666281198858" fill="#D6F0FA" stroke="#6BA3C4" stroke-width="1.6"></rect><path d="M -4.565595100428163 0.7501736024984101 L 4.565595100428163 0.7501736024984101 L 4.565595100428163 3.7508680124920506 Q 4.565595100428163 5.001157349989401 2.7393570602568977 5.001157349989401 L -2.7393570602568977 5.001157349989401 Q -4.565595100428163 5.001157349989401 -4.565595100428163 3.7508680124920506 Z" fill="#A8DFF8" opacity="0.5"></path><rect x="-2.054517795192673" y="-2.750636542494171" width="1.8262380401712652" height="1.0002314699978803" rx="2" fill="#FFFFFF" opacity="0.55"></rect></g></g><g opacity="0.9948547664098442" transform="translate(108.82525438259742, 163.24821526775972) scale(1.0007717850385234, 0.9953692897688597) translate(-108.82525438259742, -163.24821526775972)"><g transform="translate(108.82525438259742, 115.27559330608851) rotate(-10.03597194608301)"><rect x="-6.705497537593157" y="-7.108187195858425" width="13.410995075186314" height="14.21637439171685" rx="1.877539310526084" fill="#D6F0FA" stroke="#6BA3C4" stroke-width="1.6"></rect><path d="M -6.705497537593157 1.0662280793787637 L 6.705497537593157 1.0662280793787637 L 6.705497537593157 5.331140396893819 Q 6.705497537593157 7.108187195858425 4.023298522555894 7.108187195858425 L -4.023298522555894 7.108187195858425 Q -6.705497537593157 7.108187195858425 -6.705497537593157 5.331140396893819 Z" fill="#A8DFF8" opacity="0.5"></path><rect x="-3.0174738919169206" y="-3.909502957722134" width="2.6821990150372628" height="1.421637439171685" rx="2" fill="#FFFFFF" opacity="0.55"></rect></g></g></g></g><g><path d="M 82 116 L 84 146" stroke="rgba(255,255,255,0.5)" stroke-width="2.5" opacity="0.4" stroke-linecap="round"></path><g fill="none" stroke="#8FA8BC" stroke-width="2" stroke-linecap="round" opacity="0.9"><path d="M 73 103 A 28 3.2 0 0 1 88.24 101.5"></path><path d="M 111.76 101.5 A 28 3.2 0 0 1 127 103"></path></g></g></svg>