<svg width="260" height="240" viewBox="4 30 192 176" class="mx-auto h-64 w-64 sm:h-72 sm:w-72 md:h-80 md:w-80" role="img"><defs><clipPath id="sundae-clip-inner-_R_0_"><path d="M 83.5 110 L 89.5 156.425 Q 100 156.95 110.5 156.425 L 116.5 110 Z"></path></clipPath><clipPath id="sundae-clip-mouth-_R_0_"><path d="M 83.5 110 L 89.5 156.425 Q 100 156.95 110.5 156.425 L 116.5 110 Z"></path><path d="M 77.2 110 L 122.8 110 L 122.8 40 A 22.799999999999997 8 0 0 0 77.2 40 Z"></path></clipPath><filter id="scoop-grain-_R_0_" x="-15%" y="-15%" width="130%" height="130%" color-interpolation-filters="sRGB"><feTurbulence type="fractalNoise" baseFrequency="1.05" numOctaves="3" seed="4" stitchTiles="stitch" result="noise"></feTurbulence><feColorMatrix in="noise" type="matrix" values="0 0 0 0 0.12  0 0 0 0 0.1  0 0 0 0 0.08  0 0 0 0.7 0" result="grain"></feColorMatrix><feComposite in="grain" in2="SourceGraphic" operator="in"></feComposite></filter></defs><g><path d="M 80 110 L 86 150 Q 100 158 114 150 L 120 110 Z" fill="rgba(200,220,235,0.22)" stroke="#8FA8BC" stroke-width="2" stroke-linejoin="round" stroke-linecap="round"></path><path d="M 96.4 148 L 94 170 Q 100 174 106 170 L 103.6 148" fill="rgba(200,220,235,0.22)" stroke="#8FA8BC" stroke-width="2"></path><ellipse cx="100" cy="170" rx="14" ry="4.5" fill="rgba(200,220,235,0.22)" stroke="#8FA8BC" stroke-width="2"></ellipse><ellipse cx="100" cy="110" rx="21" ry="5" fill="rgba(232,238,244,0.55)" stroke="#C8D4DE" stroke-width="2"></ellipse><path d="M 83.5 110 L 89.5 156.425 Q 100 156.95 110.5 156.425 L 116.5 110 Z" fill="none" stroke="#8FA8BC" stroke-width="1" opacity="0.35"></path></g><g opacity="0.15"><ellipse cx="90.5778761061947" cy="117.225" rx="2" ry="3.5" fill="#93C5FD"></ellipse><ellipse cx="96.85929203539823" cy="122.225" rx="2" ry="3.5" fill="#93C5FD"></ellipse><ellipse cx="101.57035398230089" cy="117.225" rx="2" ry="3.5" fill="#93C5FD"></ellipse><ellipse cx="106.28141592920355" cy="122.225" rx="2" ry="3.5" fill="#93C5FD"></ellipse><ellipse cx="110.9924778761062" cy="117.225" rx="2" ry="3.5" fill="#93C5FD"></ellipse></g><g clip-path="url(#sundae-clip-inner-_R_0_)"><g opacity="1" transform="translate(100, 157.4825) scale(1, 1) translate(-100, -157.4825)"><defs><linearGradient id="interior-grad-_R_0_" x1="100" y1="110" x2="100" y2="157.4825" gradientUnits="userSpaceOnUse"><stop offset="0%" stop-color="#F06B8A"></stop><stop offset="100%" stop-color="rgb(187, 83, 108)"></stop></linearGradient></defs><path d="M 81 111.2 Q 100 105.7 119 111.2 C 119.5 119.2, 114.63781779661018 147.8125, 113 157.55 Q 100 157.8 87 157.55 C 85.36218220338982 147.8125, 80.5 119.2, 81 111.2 Z" fill="url(#interior-grad-_R_0_)"></path><path d="M 81 111.2 Q 100 105.7 119 111.2 C 119.5 119.2, 114.63781779661018 147.8125, 113 157.55 Q 100 157.8 87 157.55 C 85.36218220338982 147.8125, 80.5 119.2, 81 111.2 Z" fill="rgb(156, 70, 90)" filter="url(#scoop-grain-_R_0_)" opacity="0.4" style="mix-blend-mode:multiply"></path><path d="M 81.64 112 Q 100 115.5 118.36 112 Q 100 112.98 81.64 112 Z" fill="rgb(173, 77, 99)" opacity="0.2"></path></g></g><g clip-path="url(#sundae-clip-mouth-_R_0_)"><g><path d="M 79.9236162618862 111.5 Q 100 115 120.0763837381138 111.5 Q 100 112.48 79.9236162618862 111.5 Z" fill="rgb(144, 64, 83)" opacity="0.26"></path><g opacity="1" transform="translate(100, 121) rotate(2.2279126068111506) scale(1, 1) translate(-100, -121) translate(0, 0)"><g><defs><radialGradient id="_R_0_-scoop-grad-1" cx="93.952" cy="111.928" r="29.160000000000004" gradientUnits="userSpaceOnUse"><stop offset="0%" stop-color="rgb(255, 137, 177)"></stop><stop offset="45%" stop-color="#F06B8A"></stop><stop offset="100%" stop-color="rgb(192, 86, 110)"></stop></radialGradient></defs><path d="M 78.4 118.408 A 21.6 20.736 0 0 1 121.6 118.408 C 115.12 130.288, 107.56 128.776, 100 128.776 C 92.44 128.776, 84.88 130.288, 78.4 118.408 Z" fill="url(#_R_0_-scoop-grad-1)" stroke="none"></path><path d="M 78.4 118.408 A 21.6 20.736 0 0 1 121.6 118.408 C 115.12 130.288, 107.56 128.776, 100 128.776 C 92.44 128.776, 84.88 130.288, 78.4 118.408 Z" fill="rgb(156, 70, 90)" filter="url(#scoop-grain-_R_0_)" opacity="0.45" style="mix-blend-mode:multiply"></path><path d="M 78.4 118.408 A 21.6 20.736 0 0 1 121.6 118.408" fill="none" stroke="#B03A58" stroke-width="2" stroke-linejoin="round" stroke-linecap="round" opacity="0.85"></path><ellipse cx="91.792" cy="110.632" rx="5.6160000000000005" ry="3.24" fill="#FFFFFF" opacity="0.55" transform="rotate(-28 91.792 110.632)"></ellipse></g></g></g></g><g><g fill="none" stroke="#8FA8BC" stroke-width="2" stroke-linecap="round" opacity="0.9"><path d="M 79 111 A 22 3.2 0 0 1 90.76 109.5"></path><path d="M 109.24 109.5 A 22 3.2 0 0 1 121 111"></path></g><path d="M 86 122 L 88 142" stroke="rgba(255,255,255,0.45)" stroke-width="2" opacity="0.45" stroke-linecap="round"></path></g></svg>